<?xml version="1.0" standalone="no"?>
<!DOCTYPE svg PUBLIC "-//W3C//DTD SVG 20010904//EN"
 "http://www.w3.org/TR/2001/REC-SVG-20010904/DTD/svg10.dtd">
<svg version="1.0" xmlns="http://www.w3.org/2000/svg"
 width="72.000000pt" height="72.000000pt" viewBox="0 0 72.000000 72.000000"
 preserveAspectRatio="xMidYMid meet">
<metadata>
Created by potrace 1.11, written by Peter Selinger 2001-2013
</metadata>
<g transform="translate(0.000000,72.000000) scale(0.100000,-0.100000)"
fill="#000000" stroke="none">
<path d="M337 684 c-4 -4 -7 -17 -7 -28 0 -17 -10 -25 -45 -35 -25 -7 -60 -23
-77 -35 -45 -30 -97 -101 -110 -152 -10 -35 -17 -44 -37 -46 -20 -2 -26 -9
-26 -28 0 -20 6 -26 28 -28 17 -2 27 -9 27 -20 1 -30 40 -106 73 -141 33 -34
118 -81 149 -81 11 0 18 -10 20 -27 2 -22 8 -28 28 -28 19 0 26 6 28 25 2 21
11 28 48 39 24 7 59 23 76 35 45 30 97 101 110 152 10 35 17 44 37 46 20 2 26
9 26 28 0 20 -6 26 -27 28 -18 2 -28 9 -28 20 0 31 -47 116 -81 149 -35 33
-111 72 -141 73 -11 0 -18 10 -20 28 -3 26 -34 43 -51 26z m117 -143 c78 -38
126 -137 107 -222 -27 -119 -149 -191 -260 -154 -90 30 -144 103 -144 195 0
88 52 163 135 194 53 19 104 15 162 -13z"/>
<path d="M304 471 c-68 -30 -87 -135 -35 -193 27 -31 34 -33 91 -33 57 0 64 2
91 33 24 26 29 41 29 82 0 40 -5 56 -28 81 -23 26 -37 32 -78 35 -27 2 -59 0
-70 -5z"/>
</g>
</svg>
